# xmcd
#
# Track frame offsets:
#	150
#	21223
#	48523
#	66264
#	81736
#	100319
#	114845
#	133976
#	152881
#	168551
#	191172
#	209228
#	226283
#	244806
#	263462
#	283938
#	304889
#	322289
#	338613
#
# Disc length: 4751
#
# Revision: 1
# Processed by: cddbd v1.5.1PL0 Copyright (c) Steve Scherf et al.
# Submitted via: audiograbber 1.82.02
# Normalized: r0:DSETVAR1
#
DISCID=2a128d13
DTITLE=Various Artist - Baladas En Español 2003
DYEAR=2003
DGENRE=Ballad
TTITLE0=Chayanne - Un siglo sin ti
TTITLE1=Alejandro Sanz - No es lo mismo
TTITLE2=La Oreja de Van Gogh - Rosas
TTITLE3=David Bisbal y Elena Gadel - Mienteme
TTITLE4=Ricardo Arjona - Minutos
TTITLE5=Luis Miguel - Te necesito
TTITLE6=Hector Montaner - Amor del bueno
TTITLE7=Jerry Rivera - Vuela muy alto
TTITLE8=Gloria Estefan - Hoy
TTITLE9=Tiziano Ferro - Alucinado
TTITLE10=Eros Ramazotti - Una emoción para siempre
TTITLE11=Ricardo Montaner - Que ganas
TTITLE12=Alexandre Pires - Amame
TTITLE13=Soraya - Casi
TTITLE14=Alex Ubago - A gritos de esperanza
TTITLE15=Ricky Martin - Tal vez
TTITLE16=Noelia - Clavame tu amor
TTITLE17=Sandy and Junior - El amor no fallará
TTITLE18=Andrés de León - Y llegaste tu
EXTD=
EXTT0=
EXTT1=
EXTT2=
EXTT3=
EXTT4=
EXTT5=
EXTT6=
EXTT7=
EXTT8=
EXTT9=
EXTT10=
EXTT11=
EXTT12=
EXTT13=
EXTT14=
EXTT15=
EXTT16=
EXTT17=
EXTT18=
PLAYORDER=
